HIERARCHY
ROOT root
{
	OFFSET 0.000000 0.000000 0.000000
	CHANNELS 6 Xposition Yposition Zposition Zrotation Yrotation Xrotation
	JOINT lhip
	{
		OFFSET 0.058581 -0.082280 -0.017664
		CHANNELS 3 Zrotation Yrotation Xrotation
		JOINT lknee
		{
			OFFSET 0.043451 -0.386469 0.008037
			CHANNELS 3 Zrotation Yrotation Xrotation
			JOINT lankle
			{
				OFFSET -0.014790 -0.426874 -0.037428
				CHANNELS 3 Zrotation Yrotation Xrotation
				JOINT ltoe
				{
					OFFSET 0.041054 -0.060286 0.122042
					CHANNELS 3 Zrotation Yrotation Xrotation
					End Site
					{
						OFFSET 0.000000 0.000000 0.000000
					}
				}
			}
		}
	}
	JOINT rhip
	{
		OFFSET -0.060310 -0.090513 -0.013543
		CHANNELS 3 Zrotation Yrotation Xrotation
		JOINT rknee
		{
			OFFSET -0.043257 -0.383688 -0.004843
			CHANNELS 3 Zrotation Yrotation Xrotation
			JOINT rankle
			{
				OFFSET 0.019056 -0.420046 -0.034562
				CHANNELS 3 Zrotation Yrotation Xrotation
				JOINT rtoe
				{
					OFFSET -0.034840 -0.062106 0.130323
					CHANNELS 3 Zrotation Yrotation Xrotation
					End Site
					{
						OFFSET 0.000000 0.000000 0.000000
					}
				}
			}
		}
	}
	JOINT lowerback
	{
		OFFSET 0.004439 0.124404 -0.038385
		CHANNELS 3 Zrotation Yrotation Xrotation
		JOINT upperback
		{
			OFFSET 0.004488 0.137956 0.026820
			CHANNELS 3 Zrotation Yrotation Xrotation
			JOINT chest
			{
				OFFSET -0.002265 0.056032 0.002855
				CHANNELS 3 Zrotation Yrotation Xrotation
				JOINT lowerneck
				{
					OFFSET -0.013390 0.211636 -0.033468
					CHANNELS 3 Zrotation Yrotation Xrotation
					JOINT upperneck
					{
						OFFSET 0.010113 0.088937 0.050410
						CHANNELS 3 Zrotation Yrotation Xrotation
						End Site
						{
							OFFSET 0.000000 0.000000 0.000000
						}
					}
				}
				JOINT lclavicle
				{
					OFFSET 0.071702 0.114000 -0.018898
					CHANNELS 3 Zrotation Yrotation Xrotation
					JOINT lshoulder
					{
						OFFSET 0.122921 0.045205 -0.019046
						CHANNELS 3 Zrotation Yrotation Xrotation
						JOINT lelbow
						{
							OFFSET 0.255332 -0.015649 -0.022946
							CHANNELS 3 Zrotation Yrotation Xrotation
							JOINT lwrist
							{
								OFFSET 0.265709 0.012698 -0.007375
								CHANNELS 3 Zrotation Yrotation Xrotation
								End Site
								{
									OFFSET 0.000000 0.000000 0.000000
								}
							}
						}
					}
				}
				JOINT rclavicle
				{
					OFFSET -0.082954 0.112472 -0.023707
					CHANNELS 3 Zrotation Yrotation Xrotation
					JOINT rshoulder
					{
						OFFSET -0.113228 0.046853 -0.008472
						CHANNELS 3 Zrotation Yrotation Xrotation
						JOINT relbow
						{
							OFFSET -0.260127 -0.014369 -0.031269
							CHANNELS 3 Zrotation Yrotation Xrotation
							JOINT rwrist
							{
								OFFSET -0.269108 0.006794 -0.006027
								CHANNELS 3 Zrotation Yrotation Xrotation
								End Site
								{
									OFFSET 0.000000 0.000000 0.000000
								}
							}
						}
					}
				}
			}
		}
	}
}
MOTION
Frames: 11
Frame Time: 0.033333
-0.420450 0.303860 1.000424 85.890254 -0.753973 88.650254 -1.499529 0.570791 -0.012589 -3.209062 -4.357520 3.048026 3.303130 10.489558 -6.438324 0.000000 -0.000000 0.000000 -4.163565 -2.822626 -3.661981 0.448400 -0.074975 13.269841 4.502471 -5.949213 -8.201091 0.000000 -0.000000 0.000000 -2.156419 1.503656 2.365008 1.479002 -3.988614 5.482091 -0.423628 -1.051165 -2.613363 -0.148377 2.754453 6.861891 1.992636 2.977702 19.044669 -26.050575 1.751208 -0.582564 -55.344558 -8.609200 17.190637 2.709797 -22.080536 6.942011 -1.453063 -10.881157 2.642228 28.554276 1.455792 0.689022 55.864432 9.112960 16.577124 -6.917371 20.193048 -0.608196 5.193826 8.180070 2.198376 
-0.421234 0.302060 1.000216 86.251108 -0.790534 88.705555 -1.401039 0.347141 -0.198147 -3.234318 -4.436962 3.079758 3.111213 10.488739 -6.362892 0.000000 -0.000000 0.000000 -4.166350 -2.777050 -3.570071 0.581463 -0.229327 13.068384 4.581206 -6.056332 -8.279332 0.000000 -0.000000 0.000000 -1.891685 1.587141 2.031986 1.354422 -3.801612 5.869404 -0.451549 -1.080750 -2.456430 0.025974 3.892384 7.425230 1.968126 4.097146 20.159507 -26.040129 1.440279 -0.428206 -55.165336 -9.127081 16.905021 2.621424 -22.664875 6.869992 -0.799267 -11.308255 1.953356 28.590860 1.561400 1.010530 55.727264 9.657555 16.686195 -6.962046 20.517867 -0.654378 4.799922 8.313333 2.340143 
-0.421334 0.300389 1.000507 86.589847 -0.955698 88.771645 -1.427991 0.262612 -0.287822 -3.296415 -4.584522 3.044313 3.048771 10.396133 -6.266542 0.000000 -0.000000 0.000000 -4.315095 -2.956310 -3.493482 0.688056 -0.439909 12.950376 4.604163 -6.022305 -8.195433 0.000000 -0.000000 0.000000 -1.768001 1.567920 2.212948 1.223381 -3.696548 5.300790 -0.474667 -0.905557 -2.232300 -0.015396 4.596802 8.144831 2.009281 5.137741 20.961719 -25.986793 1.666559 -0.443404 -55.099755 -9.281780 16.880083 2.529734 -23.492407 7.135296 -0.584517 -11.371271 1.571484 28.515408 1.327097 1.093525 55.745661 9.816353 16.834349 -6.797146 20.629868 -0.355112 4.844009 8.470230 2.309911 
-0.421191 0.298333 1.000717 86.665828 -1.074357 88.795434 -1.375827 0.395174 -0.246533 -3.375091 -4.630948 2.906573 3.082527 10.351485 -6.181019 0.000000 -0.000000 0.000000 -4.327684 -3.122584 -3.359578 0.648877 -0.400817 12.725820 4.655484 -5.838204 -8.176876 0.000000 -0.000000 0.000000 -1.609405 1.815397 2.201425 1.144199 -3.452485 5.383682 -0.562218 -0.787829 -2.296342 0.001731 5.140916 8.715612 2.011329 5.650603 21.515627 -26.017208 1.709114 -0.513180 -55.007910 -9.459344 16.867055 2.483685 -24.101853 7.217557 -0.419288 -11.221350 1.518174 28.477712 1.313825 1.277824 55.682126 10.066717 16.880856 -6.804611 20.426034 -0.237072 4.999813 8.274465 2.769359 
-0.421631 0.297438 1.000719 86.864178 -1.136472 88.876273 -1.450787 0.268412 -0.406736 -3.279171 -4.684911 2.963783 3.094694 10.356227 -6.151464 0.000000 -0.000000 0.000000 -4.345995 -3.076260 -3.449891 0.677993 -0.622706 12.741984 4.602505 -5.919025 -8.236483 0.000000 -0.000000 0.000000 -1.486496 1.852267 2.156350 1.112353 -3.320122 5.482958 -0.630986 -0.778484 -2.306559 0.029562 5.143845 8.987511 1.924162 5.520223 21.746302 -25.982960 1.703045 -0.471512 -55.054445 -9.661512 16.862427 2.482286 -24.282020 7.110278 -0.309725 -11.572563 1.437318 28.367883 1.454807 1.345730 55.698044 10.221864 16.906392 -6.738074 20.074538 -0.305082 4.820000 8.311524 2.698794 
-0.420596 0.295875 1.000832 86.704717 -1.314037 88.862895 -1.530683 0.545082 -0.067188 -3.270925 -4.786639 2.508100 3.023986 10.324981 -6.012030 0.000000 -0.000000 0.000000 -4.474951 -3.110056 -3.283532 0.695965 -0.620935 12.587278 4.785238 -5.781602 -8.198882 0.000000 -0.000000 0.000000 -1.594692 2.172873 1.828703 1.091544 -3.073245 5.998107 -0.599095 -0.742870 -2.405355 0.053413 5.340631 9.481485 1.868141 5.562980 21.834820 -25.902784 1.586210 -0.468687 -55.277774 -9.704146 16.823104 2.538021 -24.254927 6.952249 -0.559598 -11.487846 1.659280 28.274113 1.614763 1.534546 55.691771 10.387596 16.801932 -6.920264 19.546124 -0.503193 5.069446 8.244675 2.926081 
-0.420513 0.294680 1.001036 86.992652 -1.345175 88.863521 -1.500193 0.565552 -0.156473 -3.272574 -4.945079 2.670363 2.974628 10.202259 -6.073011 0.000000 -0.000000 0.000000 -4.479668 -3.154671 -3.035028 0.745144 -0.637717 12.222545 4.675421 -5.780280 -8.226917 0.000000 -0.000000 0.000000 -1.496412 2.172071 1.886437 1.096667 -3.072875 6.089951 -0.629802 -0.705128 -2.362223 -0.097571 5.409534 9.745734 1.752459 5.659337 22.024277 -25.981544 1.604784 -0.457889 -55.342934 -9.860340 16.884690 2.499050 -24.091785 7.046682 -0.418076 -11.429449 1.769254 28.222065 1.696606 1.517295 55.622099 10.606865 16.773966 -6.878725 18.942132 -0.588827 4.947741 8.119839 3.033110 
-0.420409 0.293791 1.001048 87.268343 -1.398290 88.871919 -1.463939 0.399550 -0.174061 -3.315805 -4.979136 2.660796 2.901019 10.139069 -6.059075 0.000000 -0.000000 0.000000 -4.513361 -3.202723 -2.924917 0.784993 -0.767327 12.107560 4.637019 -5.828543 -8.270685 0.000000 -0.000000 0.000000 -1.390286 2.170488 2.068751 1.055130 -3.069217 5.857730 -0.649880 -0.692391 -2.210167 -0.207808 5.387079 10.153393 1.747548 5.595729 22.387344 -25.966875 1.584475 -0.220165 -55.465435 -9.971839 16.878333 2.459592 -23.776442 7.191782 -0.468434 -11.631985 1.545197 28.201176 1.686813 1.560373 55.537144 10.824220 16.678143 -6.984860 18.313508 -0.707678 4.921393 8.098666 2.953076 
-0.420465 0.293135 1.001081 87.471402 -1.463986 88.964316 -1.504390 0.292917 -0.367132 -3.292611 -5.009122 2.812726 2.822034 10.077127 -6.055791 0.000000 -0.000000 0.000000 -4.554096 -3.251325 -3.004889 0.833141 -0.845004 12.130843 4.600781 -5.900144 -8.321200 0.000000 -0.000000 0.000000 -1.364063 2.153449 2.150488 1.058025 -3.120563 5.885686 -0.654283 -0.628852 -2.156189 -0.249741 5.355804 10.410235 1.668706 5.657196 22.651765 -26.022955 1.611729 -0.194954 -55.604643 -9.961125 17.022848 2.456801 -23.427091 7.347585 -0.594979 -11.656738 1.782009 28.243629 1.694713 1.503136 55.361250 10.966208 16.607918 -7.005130 17.845502 -0.805751 4.990051 8.009218 3.137511 
-0.420268 0.292620 1.000935 87.584029 -1.559877 89.106418 -1.562360 0.182334 -0.579349 -3.332209 -5.013503 2.953519 2.869012 10.068798 -6.152490 0.000000 -0.000000 0.000000 -4.618641 -3.352755 -3.163654 0.789840 -0.891306 12.202674 4.684903 -5.901391 -8.359321 0.000000 -0.000000 0.000000 -1.315174 2.166901 2.276041 1.023501 -3.176398 5.745232 -0.699117 -0.574972 -1.947698 -0.321058 5.350542 10.897777 1.602703 5.843796 22.729714 -25.972218 1.790602 -0.296262 -55.809257 -9.882949 17.212047 2.247201 -22.731523 7.379117 -0.398981 -11.578016 1.752457 28.152000 1.619688 1.404173 55.304703 11.131923 16.626482 -6.956210 17.431235 -1.081647 4.738572 8.060649 2.948487 
-0.419965 0.292543 1.000719 87.592786 -1.578621 89.126537 -1.608322 0.115396 -0.628047 -3.304794 -5.021297 2.993021 2.806573 10.093003 -6.184514 0.000000 -0.000000 0.000000 -4.660303 -3.330290 -3.185460 0.804662 -0.968043 12.219733 4.641305 -5.927521 -8.410725 0.000000 -0.000000 0.000000 -1.204951 2.180443 2.274018 1.012391 -3.152868 5.943063 -0.779766 -0.537191 -1.775338 -0.307659 5.523409 11.249462 1.584977 5.766333 22.890511 -25.908011 1.687687 -0.082331 -56.054275 -9.776483 17.211048 2.430046 -22.558654 7.247502 -0.608291 -11.554025 1.845451 27.992223 1.761882 1.494368 55.302406 11.210574 16.552994 -7.106570 17.428725 -1.165217 4.903923 7.968275 2.942333 
